<svg width="359" height="513" viewBox="0 0 359 513" xmlns="http://www.w3.org/2000/svg"><desc>Large Fidelis F logo used as a background repeating image pattern</desc><g fill-opacity=".13" fill="#FFF" fill-rule="evenodd"><path d="M1 366.892V469.3c0 24.151 19.594 43.734 43.76 43.734h49.77c24.17 0 43.765-19.583 43.765-43.739V334.074c0-6.028-4.89-10.916-10.922-10.916H44.76C20.594 323.158 1 342.736 1 366.892M280.381 323.353c24.17 0 43.76-19.582 43.76-43.733v-15.783c0-24.156-19.59-43.733-43.76-43.733h-130.97c-6.03 0-10.922 4.888-10.922 10.915v81.419c0 6.027 4.891 10.915 10.922 10.915h130.97zM39.291 220.347h88.077c6.031 0 10.922-4.888 10.922-10.916V141.96c0-6.028-4.89-10.915-10.922-10.915H39.291C18.144 131.045 1 148.178 1 169.312v12.767c0 21.134 17.144 38.268 38.291 38.268M316.186 0L149.463.041c-6.026 0-10.917 4.883-10.917 10.91l-.057 108.555c-.005 6.033 4.886 10.92 10.922 10.92h166.857c24.13 0 43.693-19.546 43.693-43.66l-.005-43.115C359.91 19.526 340.326-.005 316.186 0"/></g></svg>