<svg xmlns="http://www.w3.org/2000/svg" width="41" height="36" viewBox="0 0 41 36"><switch><g><path fill="#77BC1F" d="M.2 25.5v7c0 1.7 1.4 3 3 3h3.4c1.7 0 3-1.3 3-3v-9.3c0-.4-.3-.8-.8-.8H3.2c-1.7.1-3 1.4-3 3.1m19.2-3c1.7 0 3-1.3 3-3v-1.1c0-1.7-1.4-3-3-3h-9c-.4 0-.8.3-.8.8v5.6c0 .4.3.8.8.8l9-.1zM2.8 15.4h6.1c.4 0 .8-.3.8-.8V10c0-.4-.3-.8-.8-.8H2.8C1.3 9.2.2 10.4.2 11.8v.9c0 1.5 1.2 2.7 2.6 2.7M21.9.3H10.4c-.4 0-.8.3-.8.7v7.5c0 .4.3.8.8.8h11.5c1.7 0 3-1.3 3-3v-3c0-1.7-1.4-3-3-3m8.5 1.9c0 1.1-.9 2-2 2s-2-.9-2-2 .9-1.9 2-1.9c1.2 0 2 .8 2 1.9zm-3.4 0c0 .9.6 1.5 1.5 1.5.8 0 1.5-.7 1.5-1.5 0-.9-.6-1.6-1.5-1.6-.9.1-1.5.7-1.5 1.6zm1.1 1h-.4V1.3c.2 0 .4-.1.7-.1.4 0 .5.1.7.1.1.1.2.2.2.4s-.2.4-.4.4c.2.1.3.2.4.5.1.3.1.4.1.5h-.5c-.1-.1-.1-.2-.2-.5 0-.2-.2-.3-.4-.3h-.2v.9zm.1-1.1h.2c.2 0 .4-.1.4-.3 0-.2-.1-.3-.4-.3h-.2v.6z"/></g></switch></svg>