<svg id="Layer_1" xmlns="http://www.w3.org/2000/svg" xmlns:xlink="http://www.w3.org/1999/xlink" viewBox="0 0 11 14"><style>.st0{display:none}.st1{display:inline}.st2,.st3{clip-path:url(#SVGID_2_);fill:#e55f06}.st3{clip-path:url(#SVGID_4_)}.st4,.st5{display:none;fill:none;stroke-miterlimit:10}.st4{stroke-width:.5;stroke:#e55f06}.st5{stroke:#fff}.st6{clip-path:url(#SVGID_6_);fill:#e55f06}</style><g class="st0"><g class="st1"><defs><path id="SVGID_1_" d="M10 13.8v.5c0 .4-.3.7-.7.7H-4.3c-.4 0-.7-.3-.7-.7v-.5-.1l.9-2.3V4.2c0-.7.6-1.2 1.2-1.2H7.9c.6 0 1.2.5 1.2 1.2v7.3l.9 2.3zM-3.6 4.2v7.2H8.6V4.2c0-.4-.3-.7-.7-.7H-2.9c-.4 0-.7.3-.7.7zm-.1 7.6l-.7 1.8H.7l.4-.8c0-.1.1-.1.2-.1h2.3c.1 0 .2 0 .2.1l.4.8h5.1l-.8-1.8H-3.7zm7.5 1.8l-.2-.5H1.5l-.2.5h2.5zm5.7.7v-.2H-4.5v.2c0 .1.1.2.2.2H9.3c.1 0 .2-.1.2-.2z"/></defs><clipPath id="SVGID_2_"><use xlink:href="#SVGID_1_" overflow="visible"/></clipPath><path class="st2" d="M-10-2h25v22h-25z"/></g><g class="st1"><defs><path id="SVGID_3_" d="M7.8 4H-2.8c-.1 0-.2.1-.2.2v6.5c0 .1.1.2.2.2H7.8c.1.1.2 0 .2-.1V4.2c0-.1-.1-.2-.2-.2zm-10.3 6.5h10v-6h-10v6z"/></defs><clipPath id="SVGID_4_"><use xlink:href="#SVGID_3_" overflow="visible"/></clipPath><path class="st3" d="M-8-1h21v17H-8z"/></g></g><path class="st4" d="M5.6 10.8c-.1-.1-.3-.2-.5-.2-.1 0-.3 0-.4.1l-.8.5c-.2-.1-.7-.4-1.9-1.7C.9 8.1.6 7.5.6 7.4l.6-.8c.2-.3.2-.7 0-1L0 4.2C-.3 4.1-.5 4-.7 4c-.2 0-.4.1-.6.3l-.3.4c-.3.4-.4.9-.4 1.4 0 .5.1 1 .4 1.6.4 1 1.2 2.2 2.1 3.3.5.6 1.3 1.4 2.2 2 .9.6 1.7 1 2.4 1 .4 0 .8-.1 1.2-.4l.4-.3c.2-.2.3-.4.3-.6 0-.2 0-.4-.2-.6l-1.2-1.3z"/><path class="st4" d="M3.8 4l4.5 9.1c.2.5 0 1.1-.5 1.3-.1.1-.3.1-.4.1h-9c-.6 0-1-.4-1-1 0-.2 0-.3.1-.4L2 4c.2-.5.8-.7 1.3-.5.2.2.4.3.5.5z"/><path class="st5" d="M-7.5 34.1l-5.6-5.9c-.5-.5-1.2-.6-1.8-.4 1.8-2.1 1.7-5.3-.3-7.3-2-2.1-5.3-2.1-7.3 0s-2 5.5 0 7.6c1.8 1.9 4.7 2.1 6.8.5-.3.6-.2 1.4.3 2l5.6 5.9c.6.7 1.7.7 2.3 0 .7-.7.7-1.7 0-2.4"/><path class="st4" d="M3.5 6.1c.1 0 .1 0 .1.1L3.4 11c0 .1 0 .1-.1.1h-.6c-.1 0-.1 0-.1-.1l-.3-4.8c0-.1 0-.1.1-.1h1.1zm0 5.7c.1 0 .1 0 .1.1V13c0 .1 0 .1-.1.1h-1c-.1 0-.1 0-.1-.1v-1.1c0-.1 0-.1.1-.1h1z"/><path class="st4" d="M3.8 4l4.5 9.1c.2.5 0 1.1-.5 1.3-.1.1-.3.1-.4.1h-9c-.6 0-1-.4-1-1 0-.2 0-.3.1-.4L2 4c.2-.5.8-.7 1.3-.5.2.2.4.3.5.5z"/><defs><path id="SVGID_5_" d="M11 7L0 0v14z"/></defs><use xlink:href="#SVGID_5_" overflow="visible" fill-rule="evenodd" clip-rule="evenodd" fill="#0a2f54"/><clipPath id="SVGID_6_"><use xlink:href="#SVGID_5_" overflow="visible"/></clipPath><path class="st6" d="M-5-5h21v24H-5z"/></svg>