<svg width="20" height="16" id="Layer_1" xmlns="http://www.w3.org/2000/svg" viewBox="0 0 56 43"><style>.st0{fill:#77bc1f}</style><g id="Symbols"><g id="quote-mark"><path id="_x201C_" class="st0" d="M2.7 42.3C1.2 42.3.4 41.5.4 40V20.7c0-1.2.1-2.2.3-2.8s.7-1.3 1.3-2.1L14.1 2.6C15 1.4 16 .7 17.1.7c1.4 0 2.1.8 2.1 2.3v37c0 1.5-.8 2.3-2.3 2.3H2.7zm36.4 0c-1.5 0-2.3-.8-2.3-2.3V20.7c0-1.2.1-2.2.2-2.8s.5-1.3 1.2-2.1L50.3 2.6c.9-1.2 2-1.9 3.2-1.9 1.4 0 2.1.8 2.1 2.3v37c0 1.5-.8 2.3-2.3 2.3H39.1z"/></g></g></svg>