<?xml version="1.0" encoding="utf-8"?>
<!-- Generator: Adobe Illustrator 21.1.0, SVG Export Plug-In . SVG Version: 6.00 Build 0)  -->
<svg version="1.1" id="Layer_1" xmlns="http://www.w3.org/2000/svg" xmlns:xlink="http://www.w3.org/1999/xlink" x="0px" y="0px"
	 viewBox="0 0 6.2 6.2" style="enable-background:new 0 0 6.2 6.2;" xml:space="preserve">
<style type="text/css">
	.st0{fill:#0071AF;}
</style>
<path class="st0" d="M3.1,6.2C2.7,6.2,2.3,6.2,1.9,6c-0.4-0.2-0.7-0.4-1-0.7c-0.3-0.3-0.5-0.6-0.7-1C0.1,4,0,3.6,0,3.1
	c0-0.4,0.1-0.8,0.2-1.2c0.2-0.4,0.4-0.7,0.7-1c0.3-0.3,0.6-0.5,1-0.7C2.3,0.1,2.7,0,3.1,0C3.6,0,4,0.1,4.3,0.2
	c0.4,0.2,0.7,0.4,1,0.7c0.3,0.3,0.5,0.6,0.7,1c0.2,0.4,0.2,0.8,0.2,1.2C6.2,3.6,6.2,4,6,4.4c-0.2,0.4-0.4,0.7-0.7,1
	C5.1,5.6,4.7,5.8,4.3,6C4,6.2,3.6,6.2,3.1,6.2z M3.1,5.6c0.3,0,0.7-0.1,1-0.2c0.3-0.1,0.6-0.3,0.8-0.5c0.2-0.2,0.4-0.5,0.5-0.8
	c0.1-0.3,0.2-0.6,0.2-1s-0.1-0.7-0.2-1C5.2,1.8,5.1,1.6,4.9,1.3C4.6,1.1,4.4,0.9,4.1,0.8c-0.3-0.1-0.6-0.2-1-0.2s-0.7,0.1-1,0.2
	C1.8,0.9,1.6,1.1,1.4,1.3C1.2,1.6,1,1.8,0.9,2.1c-0.1,0.3-0.2,0.6-0.2,1s0.1,0.7,0.2,1C1,4.4,1.2,4.7,1.4,4.9
	c0.2,0.2,0.5,0.4,0.8,0.5C2.4,5.5,2.8,5.6,3.1,5.6z M1.9,4.8c-0.1,0-0.1,0-0.1-0.1V1.5c0-0.1,0-0.1,0.1-0.1h1.4
	c0.4,0,0.7,0.1,0.9,0.3c0.2,0.2,0.3,0.4,0.3,0.8c0,0.5-0.2,0.8-0.7,1l0.7,1.3c0,0.1,0,0.1-0.1,0.1H3.9c-0.1,0-0.1,0-0.1-0.1L3.1,3.5
	H2.7c0,0-0.1,0-0.1,0.1v1.1c0,0.1,0,0.1-0.1,0.1H1.9z M3.3,2.8c0.3,0,0.5-0.1,0.5-0.4S3.6,2,3.3,2H2.7c0,0-0.1,0-0.1,0.1v0.7
	c0,0,0,0.1,0.1,0.1H3.3z"/>
</svg>
