<?xml version="1.0" encoding="utf-8"?>
<!-- Generator: Adobe Illustrator 21.1.0, SVG Export Plug-In . SVG Version: 6.00 Build 0)  -->
<svg version="1.1" id="Layer_1" xmlns="http://www.w3.org/2000/svg" xmlns:xlink="http://www.w3.org/1999/xlink" x="0px" y="0px"
	 viewBox="0 0 6.5 6.5" style="enable-background:new 0 0 6.5 6.5;" xml:space="preserve">
<style type="text/css">
	.st0{fill:#77BC1F;}
</style>
<path class="st0" d="M3.2,6.5C2.8,6.5,2.3,6.4,2,6.2c-0.4-0.2-0.7-0.4-1-0.7c-0.3-0.3-0.5-0.6-0.7-1C0.1,4.1,0,3.7,0,3.2
	C0,2.8,0.1,2.4,0.2,2c0.2-0.4,0.4-0.7,0.7-1c0.3-0.3,0.6-0.5,1-0.7C2.3,0.1,2.8,0,3.2,0c0.5,0,0.9,0.1,1.3,0.3
	c0.4,0.2,0.7,0.4,1,0.7c0.3,0.3,0.5,0.6,0.7,1c0.2,0.4,0.2,0.8,0.2,1.3c0,0.5-0.1,0.9-0.2,1.3c-0.2,0.4-0.4,0.7-0.7,1
	c-0.3,0.3-0.6,0.5-1,0.7C4.1,6.4,3.7,6.5,3.2,6.5z M3.2,5.8c0.4,0,0.7-0.1,1-0.2c0.3-0.1,0.6-0.3,0.8-0.5c0.2-0.2,0.4-0.5,0.5-0.8
	c0.1-0.3,0.2-0.7,0.2-1s-0.1-0.7-0.2-1C5.5,1.9,5.3,1.6,5.1,1.4C4.8,1.2,4.6,1,4.2,0.9c-0.3-0.1-0.6-0.2-1-0.2s-0.7,0.1-1,0.2
	C1.9,1,1.7,1.2,1.4,1.4C1.2,1.6,1,1.9,0.9,2.2c-0.1,0.3-0.2,0.7-0.2,1s0.1,0.7,0.2,1C1,4.6,1.2,4.9,1.4,5.1c0.2,0.2,0.5,0.4,0.8,0.5
	C2.5,5.8,2.9,5.8,3.2,5.8z M2,5C1.9,5,1.9,5,1.9,4.9V1.5c0-0.1,0-0.1,0.1-0.1h1.4c0.4,0,0.7,0.1,1,0.3c0.2,0.2,0.3,0.5,0.3,0.8
	c0,0.5-0.2,0.8-0.7,1l0.7,1.4C4.8,5,4.8,5,4.7,5H4.1C4,5,4,5,3.9,4.9L3.3,3.6H2.8c0,0-0.1,0-0.1,0.1v1.2C2.7,5,2.7,5,2.6,5H2z
	 M3.4,2.9C3.8,2.9,4,2.8,4,2.5c0-0.3-0.2-0.4-0.5-0.4H2.8c0,0-0.1,0-0.1,0.1v0.7c0,0,0,0.1,0.1,0.1H3.4z"/>
</svg>
